<svg xmlns="http://www.w3.org/2000/svg" viewBox="0 0 48 48">
                      <defs></defs>
                      <g id="Layer_2" data-name="Layer 2">
                        <g id="layer_1-2" data-name="layer 1">
                          <path
                            class="cls-1"
                            d="M35 48H13A13 13 0 0 1 0 35V13A13 13 0 0 1 13 0h22a13 13 0 0 1 13 13v22a13 13 0 0 1-13 13zM13 2A11 11 0 0 0 2 13v22a11 11 0 0 0 11 11h22a11 11 0 0 0 11-11V13A11 11 0 0 0 35 2z"
                          />
                          <path
                            class="cls-1"
                            d="M39 36H9a1 1 0 0 1-1-1V13a1 1 0 0 1 1-1h30a1 1 0 0 1 1 1v22a1 1 0 0 1-1 1zm-29-2h28V14H10z"
                          />
                          <path
                            class="cls-1"
                            d="M24 28a1 1 0 0 1-.68-.27l-15-14A1 1 0 0 1 9 12h30a1 1 0 0 1 .68 1.73l-15 14A1 1 0 0 1 24 28zM11.54 14 24 25.63 36.46 14z"
                          />
                          <path
                            class="cls-1"
                            d="M39 36H9a1 1 0 0 1-.68-1.73l11.78-11 1.37 1.46L11.54 34h24.92l-9.93-9.27 1.37-1.46 11.78 11A1 1 0 0 1 39 36z"
                          />
                        </g>
                      </g>
                    </svg>