<svg xmlns="http://www.w3.org/2000/svg" xml:space="preserve" width="2048" height="2048" style="shape-rendering:geometricPrecision;text-rendering:geometricPrecision;image-rendering:optimizeQuality;fill-rule:evenodd;clip-rule:evenodd"><defs><style>.fil0{fill:none}.fil4{fill:#727272}</style></defs><g id="Layer_x0020_1"><path class="fil0" d="M0 0h2048v2048H0z"/><path class="fil0" d="M255.999 255.999h1536v1536h-1536z"/><g id="_493163632"><path id="_493174504" style="fill:#414141;fill-rule:nonzero" d="m1044.32 584.121 669.8 305.43 77.88 35.516-78.33 34.622-676.89 299.171-15.68 6.93-15.63-7.08-660.036-299.171-76.89-34.852 76.74-35.136 667.126-305.43 15.92-7.289z"/><path id="_493172992" d="m1024 1258.48.673-.299 329.366-146.249 53.896-23.933-.013 59.002-.045 192.813-.004 17.162-12.79 11.434c-121.842 83.25-246.333 124.228-370.92 124.128l-.163.001V1258.48z" style="fill:#757575;fill-rule:nonzero"/><path id="_493166944" d="m1022.6 1259.1 1.4-.622v234.059c-125.266-.137-250.628-41.804-373.49-123.828l-12.96-11.429.016-17.468.185-192.09.057-59.062 53.826 23.843L1022.6 1259.1z" style="fill:#616161;fill-rule:nonzero"/><path id="_493161544" class="fil0" style="stroke:#727272;stroke-width:31.9996" d="M1024 863.999 459.885 1019.31v76.4"/><path id="_493158136" class="fil4" d="m455.201 1126.37 59.935 231.34-113.332-.5z"/><circle id="_493175776" class="fil4" cx="455.99" cy="1125.63" r="37.633"/><ellipse id="_493172176" cx="1018.89" cy="874.563" rx="47.692" ry="30.217" style="fill:#202020"/></g></g></svg>